<svg xmlns="http://www.w3.org/2000/svg" fill="none" viewBox="0 0 144 48"><path fill="#352171" d="M124.809 35.3225s-4.415-.2623-7.738-.7432c-3.322-.4809-7.169-1.3115-7.169-1.3115l-1.749 12.6776s3.847.8743 7.169 1.3115c3.323.4809 7.738.7432 7.738.7432l1.749-12.6776Z"></path><path fill="#F7931E" d="m131.366 21.7705-4.809.8743-1.748 12.6776 11.541 5.5957s2.011-3.4099 3.497-6.4263c1.486-3.0164 3.104-7.1257 3.104-7.1257l-11.585-5.5956Z"></path><path fill="#352171" d="M135.257 7.25686c-2.404-2.31694-5.814-5.15847-5.814-5.15847l-8.875 9.22401 6.033 11.2787 4.809-.8743 8.874-9.224c0 .0437-2.623-2.929-5.027-5.24594Z"></path><path fill="#F7931E" d="m111.65 20.5465 8.875-9.2241L114.492 0s-3.629 1.57377-6.601 3.14754c-2.973 1.57377-6.689 3.93443-6.689 3.93443l6.033 11.32243 4.415 2.1421Z"></path><path fill="#ED1C24" d="M97.2678 35.4535s-1.0928-4.2842-1.6611-7.6066c-.5684-3.3224-.9618-7.2568-.9618-7.2568l12.6341-2.2295 11.497 5.5956-8.874 9.2241-12.6342 2.2732ZM.04372 11.0165C0 10.9291 0 10.7979 0 10.7105c0-.2186.08743-.3935.21858-.5683.13115-.17489.34973-.26232.5683-.26232.17487 0 .30602.04372.43716.13112.13115.0875.21858.2186.30602.3498l3.14754 7.4754 3.14754-7.4754c.13115-.3061.39344-.48092.74317-.48092.21858 0 .43716.08743.5683.26232.13115.1748.21858.3497.21858.5683 0 .1311 0 .2186-.04371.306l-3.847 9.1803c-.17486.306-.39344.4809-.74317.4809-.34972 0-.61202-.1749-.74317-.4809L.04372 11.0165Zm10.22948 2.7104c0-.5246.0874-1.0055.306-1.4864.2186-.4808.4809-.8743.8306-1.224s.7432-.612 1.2241-.8306c.4371-.21859.9617-.30602 1.4863-.30602s1.0055.08743 1.4863.30602c.4809.2186.8743.4809 1.2241.8306.3497.3497.612.7432.8306 1.224.2186.4809.306.9618.306 1.4864v1.6175c0 .2185-.0874.4371-.2186.5683-.1749.1748-.3497.2186-.5683.2186h-5.2459v.7431c0 .306.0437.5683.1749.8306.1311.2623.2623.5246.4808.6995.2186.2186.4372.3497.6995.4808.2623.1312.5683.1749.8743.1749.4372 0 .8743-.1311 1.224-.3497.3498-.2186.6121-.5683.8306-.9618v-.0437c.0438-.1748.1312-.2623.3061-.3497.1311-.0874.306-.1312.4371-.1312.2186 0 .4372.0875.5683.2623.1749.1749.2186.3498.2186.5683 0 .0875-.0437.2186-.0874.3935-.306.6994-.7432 1.224-1.3989 1.6612-.6121.4372-1.3115.6557-2.0984.6557-.5246 0-1.0055-.0874-1.4863-.306-.4809-.2186-.8744-.4809-1.2241-.8306s-.612-.7432-.8306-1.224c-.2186-.4809-.306-.9618-.306-1.4864v-3.1912h-.0437Zm1.6175.7869h4.459v-.8306c0-.306-.0437-.5683-.1749-.8306-.1311-.2623-.2623-.5246-.4808-.6995-.2186-.2186-.4372-.3497-.6995-.4809-.2623-.1311-.5683-.1748-.8743-.1748-.306 0-.612.0437-.8743.1748-.2623.1312-.5246.2623-.6995.4809-.2186.2186-.3497.4372-.4809.6995-.1311.2623-.1748.5683-.1748.8306v.8306Zm8.8744-3.7159c.3497-.306.7432-.5683 1.1366-.6994.4372-.13119.8743-.21862 1.4426-.21862.4809.04372.8744.08744 1.1804.17482.306.0875.5683.2186.7869.3498.2185.1748.3497.3934.3497.6994 0 .2186-.0874.4372-.2186.5683-.1749.1312-.3497.2186-.5683.2186-.1749 0-.3497-.0437-.4809-.1311-.3497-.2186-.7431-.306-1.1366-.306-.612 0-1.1366.2185-1.5738.612-.4371.4371-.6557.918-.6557 1.53v6.2077c0 .2186-.0874.4371-.2186.5683-.1748.1749-.3497.2186-.5683.2186-.2186 0-.3934-.0875-.5683-.2186-.1749-.1749-.2623-.3497-.2623-.5683v-5.2022c0-.612.0437-1.0929.1312-1.5301.0874-.4371.1748-.7868.306-1.0929.1311-.306.2623-.5245.4371-.7431.1749-.1312.306-.306.4809-.4372Zm5.5956 2.929c0-.5246.0874-1.0055.306-1.4864.2186-.4808.4809-.8743.8306-1.224.3498-.3497.7432-.612 1.2241-.8306.4808-.21859.9617-.30602 1.4863-.30602s1.0055.08743 1.4864.30602c.4808.2186.8743.4809 1.224.8306s.612.7432.8306 1.224c.2186.4809.306.9618.306 1.4864v1.6175c0 .2185-.0874.4371-.2186.5683-.1748.1748-.3497.2186-.5683.2186h-5.2459v.7431c0 .306.0437.5683.1749.8306.1311.2623.2623.5246.4809.6995.2185.2186.4371.3497.6994.4808.2623.1312.5683.1749.8743.1749.4372 0 .8743-.1311 1.2241-.3497.3497-.2186.612-.5683.8306-.9618v-.0437c.0437-.1748.1311-.2623.306-.3497.1311-.0874.306-.1312.4371-.1312.2186 0 .4372.0875.5683.2623.1749.1749.2186.3498.2186.5683 0 .0875-.0437.2186-.0874.3935-.306.6994-.7432 1.224-1.3989 1.6612-.612.4372-1.3115.6557-2.0984.6557-.5246 0-1.0054-.0874-1.4863-.306-.4809-.2186-.8743-.4809-1.2241-.8306-.3497-.3497-.612-.7432-.8306-1.224-.2185-.4809-.306-.9618-.306-1.4864v-3.1912h-.0437Zm1.5738.7869h4.459v-.8306c0-.306-.0437-.5683-.1749-.8306-.1311-.2623-.2623-.5246-.4808-.6995-.2186-.2186-.4372-.3497-.6995-.4809-.2623-.1311-.5683-.1748-.8743-.1748-.306 0-.612.0437-.8743.1748-.2623.1312-.5246.2623-.6995.4809-.2186.2186-.3497.4372-.4808.6995-.1312.2623-.1749.5683-.1749.8306v.8306Zm7.7813-.7869c0-.5246.0875-1.0055.306-1.4864.2186-.4808.4809-.8743.8306-1.224.3498-.3497.7432-.612 1.2241-.8306.4371-.21859.9617-.30602 1.4863-.30602s1.0055.08743 1.4864.30602c.4808.2186.8743.4809 1.224.8306s.612.7432.8306 1.224c.2186.4809.306.9618.306 1.4864v6.1639c0 .2186-.0874.4372-.2623.5683-.1748.1749-.3497.2186-.5683.2186-.2186 0-.4371-.0874-.5683-.2186-.1749-.1748-.2186-.3497-.2186-.5683v-6.1639c0-.306-.0437-.5683-.1748-.8306-.1312-.2623-.2623-.5246-.4809-.6995-.2186-.2186-.4372-.3497-.6995-.4809-.2623-.1311-.5683-.1748-.8743-.1748-.306 0-.612.0437-.8743.1748-.2623.1312-.5246.2623-.6995.4809-.2185.2186-.3497.4372-.4808.6995-.1312.2623-.1749.5683-.1749.8306v6.1639c0 .2186-.0874.4372-.2623.5683-.1748.1749-.3497.2186-.5683.2186-.2186 0-.4372-.0874-.5683-.2186-.1749-.1748-.2186-.3497-.2186-.5683v-6.1639Zm9.5302-6.38264c0-.21858.0874-.43716.2186-.56831.1748-.17486.3497-.21858.5683-.21858.2185 0 .3934.08743.5683.21858.1748.17487.2623.34973.2623.56831v.61202c0 .21858-.0875.43716-.2186.56831-.1749.17486-.3498.21858-.5683.21858-.2186 0-.3935-.08744-.5683-.21858-.1749-.17487-.2623-.34973-.2623-.56831v-.61202Zm0 3.36614c0-.2186.0874-.4372.2186-.5683.1748-.17489.3497-.21861.5683-.21861.2185 0 .3934.08741.5683.21861.1748.1748.2623.3497.2623.5683v9.1803c0 .2186-.0875.4372-.2186.5683-.1749.1749-.3498.2186-.5683.2186-.2186 0-.3935-.0874-.5683-.2186-.1749-.1748-.2623-.3497-.2623-.5683v-9.1803Zm3.3661 3.0165c0-.5246.0874-1.0055.306-1.4864.2185-.4808.4808-.8743.8306-1.224.3497-.3497.7431-.612 1.224-.8306.4372-.21859.9618-.30602 1.4864-.30602.5245 0 1.0054.08743 1.4863.30602.4809.2186.8743.4809 1.224.8306.3498.3497.6121.7432.8306 1.224.2186.4809.3061.9618.3061 1.4864v6.8197c0 .5245-.0875 1.0054-.3061 1.4863-.2185.4809-.4808.8743-.8306 1.224-.3497.3498-.7431.6121-1.224.8306-.4809.2186-.9618.306-1.4863.306-.2186 0-.4372-.0874-.5684-.2185-.1748-.1749-.2185-.3498-.2185-.5683 0-.2186.0874-.4372.2185-.5683.1749-.1749.3498-.2186.5684-.2186.306 0 .5683-.0437.8743-.1749.2623-.1311.5246-.2623.6994-.4809.2186-.2185.3498-.4371.4809-.6994.1311-.2623.1749-.5683.1749-.8306v-.5246c-.6558.4809-1.3989.6994-2.2295.6994-.5246 0-1.0055-.0874-1.4864-.306-.4809-.2185-.8743-.4808-1.224-.8306-.3498-.3497-.6121-.7431-.8306-1.224-.2186-.4809-.306-.9618-.306-1.4863v-3.235Zm1.6174 3.1475c0 .306.0438.5683.1749.8306.1312.2623.2623.5246.4809.6995.2186.2186.4371.3497.6994.4808.2623.1312.5683.1749.8744.1749.306 0 .5683-.0437.8306-.1749.2622-.0874.4808-.2622.6994-.4371.2186-.1749.3497-.3935.4809-.6557.1311-.2623.1749-.5246.2186-.8306v-3.2787c0-.3061-.0438-.5683-.1749-.8306s-.2623-.5246-.4809-.6995c-.2185-.2186-.4371-.3497-.6994-.4809-.2623-.1311-.5683-.1748-.8743-.1748-.3061 0-.6121.0437-.8744.1748-.2623.1312-.5246.2623-.6994.4809-.2186.2186-.3497.4372-.4809.6995-.1311.2623-.1749.5683-.1749.8306v3.1912Zm7.9563-9.53014c0-.21858.0874-.43716.2186-.56831.1748-.17486.3497-.21858.5683-.21858.2186 0 .3934.08743.5683.21858.1748.17487.2623.34973.2623.56831v.61202c0 .21858-.0875.43716-.2186.56831-.1749.17486-.3497.21858-.5683.21858-.2186 0-.3935-.08744-.5683-.21858-.1749-.17487-.2623-.34973-.2623-.56831v-.61202Zm0 3.36614c0-.2186.0874-.4372.2186-.5683.1748-.17489.3497-.21861.5683-.21861.2186 0 .3934.08741.5683.21861.1748.1748.2623.3497.2623.5683v9.1803c0 .2186-.0875.4372-.2186.5683-.1749.1749-.3497.2186-.5683.2186-.2186 0-.3935-.0874-.5683-.2186-.1749-.1748-.2623-.3497-.2623-.5683v-9.1803Zm3.6284 3.0165c0-.5246.0874-1.0055.306-1.4864.2186-.4808.4809-.8743.8306-1.224.3498-.3497.7432-.612 1.2241-.8306.4371-.21859.9617-.30602 1.4863-.30602s1.0055.08743 1.4863.30602c.4809.2186.8744.4809 1.2241.8306s.612.7432.8306 1.224c.2186.4809.306.9618.306 1.4864v6.1639c0 .2186-.0874.4372-.2623.5683-.1749.1749-.3497.2186-.5683.2186-.2186 0-.4372-.0874-.5683-.2186-.1749-.1748-.2186-.3497-.2186-.5683v-6.1639c0-.306-.0437-.5683-.1749-.8306-.1311-.2623-.2622-.5246-.4808-.6995-.2186-.2186-.4372-.3497-.6995-.4809-.2623-.1311-.5683-.1748-.8743-.1748-.306 0-.612.0437-.8743.1748-.2623.1312-.5246.2623-.6995.4809-.2185.2186-.3497.4372-.4808.6995-.1312.2623-.1749.5683-.1749.8306v6.1639c0 .2186-.0874.4372-.2623.5683-.1749.1749-.3497.2186-.5683.2186-.2186 0-.4372-.0874-.5683-.2186-.1749-.1748-.2186-.3497-.2186-.5683v-6.1639Zm9.0929 0c0-.5246.0874-1.0055.306-1.4864.2186-.4808.4809-.8743.8306-1.224s.7432-.612 1.2241-.8306c.4371-.21859.9617-.30602 1.4863-.30602s1.0055.08743 1.4863.30602c.4809.2186.8744.4809 1.2241.8306s.612.7432.8306 1.224c.2186.4809.306.9618.306 1.4864v6.8197c0 .5245-.0874 1.0054-.306 1.4863-.2186.4809-.4809.8743-.8306 1.224-.3497.3498-.7432.6121-1.2241.8306-.4808.2186-.9617.306-1.4863.306-.2186 0-.4372-.0874-.5683-.2185-.1749-.1749-.2186-.3498-.2186-.5683 0-.2186.0874-.4372.2186-.5683.1749-.1749.3497-.2186.5683-.2186.306 0 .5683-.0437.8743-.1749.2623-.1311.5246-.2623.6995-.4809.2186-.2185.3497-.4371.4808-.6994.1312-.2623.1749-.5683.1749-.8306v-.5246c-.6557.4809-1.3989.6994-2.2295.6994-.5246 0-1.0055-.0874-1.4863-.306-.4809-.2185-.8744-.4808-1.2241-.8306-.3497-.3497-.612-.7431-.8306-1.224-.2186-.4809-.306-.9618-.306-1.4863v-3.235Zm1.6175 3.1475c0 .306.0437.5683.1749.8306.1311.2623.2622.5246.4808.6995.2186.2186.4372.3497.6995.4808.2623.1312.5683.1749.8743.1749.306 0 .5683-.0437.8306-.1749.2623-.0874.4809-.2622.6995-.4371.2185-.1749.3497-.3935.4808-.6557.1312-.2623.1749-.5246.2186-.8306v-3.2787c0-.3061-.0437-.5683-.1749-.8306-.1311-.2623-.2622-.5246-.4808-.6995-.2186-.2186-.4372-.3497-.6995-.4809-.2623-.1311-.5683-.1748-.8743-.1748-.306 0-.612.0437-.8743.1748-.2623.1312-.5246.2623-.6995.4809-.2186.2186-.3497.4372-.4808.6995-.1312.2623-.1749.5683-.1749.8306v3.1912ZM.43713 31.8688c0-.5246.08744-1.0492.30601-1.5301.21858-.4808.48088-.918.87432-1.3114.34973-.3935.78689-.6558 1.31148-.8744.48087-.2185 1.00546-.306 1.57377-.306.5683 0 1.0929.0875 1.57377.306.48087.2186.91803.5246 1.31148.8744.39344.3934.65573.7868.87431 1.3114.21858.4809.30601 1.0055.30601 1.5301v1.4863c0 .306-.13114.612-.34972.8306-.21858.2186-.48088.3498-.78689.3498H2.71036v.3497c0 .4809.17486.918.52459 1.2677.34973.3498.78688.5246 1.26776.5246.17486 0 .39344-.0437.65574-.1311.26229-.0875.48087-.2186.69945-.4372.13115-.1748.2623-.306.48088-.4371.21857-.1312.43715-.2186.65573-.2186.21858 0 .39345.0874.56831.2186.13115.0874.26229.2185.34973.3934.08743.1749.13114.306.13114.4809 0 .0874 0 .2186-.04371.3497-.04372.1312-.08743.2623-.17486.3934-.30602.4372-.74318.8307-1.26777 1.1367-.52459.3497-1.18032.5246-2.01092.5246-.56831 0-1.0929-.0875-1.57378-.3061-.48087-.2185-.91803-.5245-1.31147-.8743-.39345-.3934-.65574-.7869-.87432-1.2677-.21858-.4809-.30601-1.0055-.30601-1.5738l-.04372-3.0601Zm2.27323.3497h3.62842v-.3497c0-.4809-.17487-.918-.5246-1.2678-.34972-.3497-.78688-.5246-1.31147-.5246-.52459 0-.96175.1749-1.26776.5246-.34973.3498-.52459.7869-.52459 1.2678v.3497Zm7.34434-6.6886c0-.3497.1311-.612.3497-.8306.2186-.2185.4809-.3497.8306-.3497s.612.1312.8306.3497c.2186.2186.3497.5246.3497.8306v.6121c0 .306-.1311.612-.3497.8306-.2186.2185-.5246.3497-.8306.3497-.306 0-.5683-.1312-.8306-.3497-.2186-.2186-.3497-.5246-.3497-.8306v-.6121Zm0 3.4973c0-.3497.1311-.612.3497-.8306.2186-.2186.4809-.3497.8306-.3497s.612.1311.8306.3497c.2186.2186.3497.5246.3497.8306v8.6995c0 .3497-.1311.612-.3497.8306-.2186.2185-.5246.3497-.8306.3497-.306 0-.5683-.1312-.8306-.3497-.2186-.2186-.3497-.5246-.3497-.8306v-8.6995Zm3.8906 2.8853c0-.5683.0874-1.0929.306-1.5738.2186-.4808.5246-.918.8743-1.3114.3935-.3935.7869-.6558 1.3115-.8744.4809-.2185 1.0055-.306 1.5738-.306s1.0929.0875 1.5738.306c.4808.2186.918.5246 1.3114.8744.3935.3934.6558.7868.8744 1.3114.2185.4809.3497 1.0055.3497 1.5738v6.4262c0 .5683-.1312 1.0929-.3497 1.5738-.2186.4809-.5246.918-.8744 1.3115-.3934.3497-.7868.6557-1.3114.8743-.4809.2186-1.0055.306-1.5738.306-.3497 0-.612-.1311-.8306-.3497-.2186-.2186-.3497-.5246-.3497-.8306 0-.306.1311-.612.3497-.8306.2186-.2186.5246-.3497.8306-.3497.4371 0 .7869-.1312 1.1366-.4372.3497-.306.5246-.6557.5683-1.0929-.5246.2623-1.0929.3934-1.7049.3934-.5683 0-1.0929-.0874-1.5738-.306-.4809-.2186-.918-.5246-1.3115-.8743-.3934-.3934-.6557-.7869-.8743-1.3115-.2186-.4808-.306-1.0054-.306-1.5737v-2.929Zm2.3607 2.929c0 .2185.0437.4371.1311.6557.0874.2186.2186.3934.3935.5246.1748.1749.3497.2623.5683.3497.2185.0874.4371.1312.6557.1312.4372 0 .8306-.1749 1.1803-.4809.3498-.306.5246-.6995.5246-1.1366v-3.0164c0-.4809-.1748-.8743-.5246-1.1803-.3497-.3498-.7431-.4809-1.224-.4809s-.918.1748-1.2241.4809c-.3497.3497-.4808.7431-.4808 1.1803v2.9727Zm7.3441-2.9727c0-.5246.0875-1.0492.3061-1.5301.2185-.4808.4808-.918.8743-1.3114.3497-.3935.7869-.6558 1.3115-.8744.4808-.2185 1.0054-.306 1.5737-.306s1.0929.0875 1.5738.306c.4809.2186.918.5246 1.3115.8744.3934.3934.6557.7868.8743 1.3114.2186.4809.306 1.0055.306 1.5301v1.4863c0 .306-.1312.612-.3497.8306-.2186.2186-.4809.3498-.7869.3498h-4.765v.3497c0 .4809.1748.918.5245 1.2677.3498.3498.7869.5246 1.2678.5246.1749 0 .3934-.0437.6557-.1311.2623-.0875.4809-.2186.6995-.4372.1311-.1748.2623-.306.4809-.4371.2186-.1312.4371-.2186.6557-.2186.2186 0 .3935.0874.5683.2186.1312.0874.2623.2185.3497.3934.0875.1749.1312.306.1312.4809 0 .0874 0 .2186-.0437.3497-.0437.1312-.0875.2623-.1749.3934-.306.4372-.7432.8307-1.2677 1.1367-.5246.3497-1.1804.5246-2.011.5246-.5683 0-1.0929-.0875-1.5737-.3061-.4809-.2185-.9181-.5245-1.3115-.8743-.3935-.3934-.6558-.7869-.8743-1.2677-.2186-.4809-.3061-1.0055-.3061-1.5738v-3.0601Zm2.2733.3497h3.6284v-.3497c0-.4809-.1749-.918-.5246-1.2678-.3497-.3497-.7869-.5246-1.3115-.5246-.5246 0-.9617.1749-1.2677.5246-.3498.3498-.5246.7869-.5246 1.2678v.3497Zm7.4319-.306c0-.5683.0874-1.0929.306-1.5738.2185-.4808.5246-.918.8743-1.3114.3934-.3935.7869-.6558 1.3115-.8744.4808-.2185 1.0054-.306 1.5737-.306s1.0929.0875 1.5738.306c.4809.2186.918.5246 1.3115.8744.3934.3934.6557.7868.8743 1.3114.2186.4809.306 1.0055.306 1.5738v5.8142c0 .3497-.1311.612-.3497.8306-.2186.2186-.5246.3497-.8306.3497-.306 0-.612-.1311-.8306-.3497-.2186-.2186-.3498-.5246-.3498-.8306v-5.8142c0-.2186-.0437-.4372-.1311-.6557-.0874-.2186-.2186-.3935-.3934-.5246-.1749-.1749-.3498-.2623-.5683-.3498-.2186-.0874-.4372-.1311-.6558-.1311-.4809 0-.8743.1749-1.224.4809-.3498.3497-.5246.7431-.5246 1.1803v5.8142c0 .3497-.1312.612-.3497.8306-.2186.2186-.5246.3497-.8306.3497-.3498 0-.6121-.1311-.8306-.3497-.2186-.2186-.3498-.5246-.3498-.8306v-5.8142h.0875Zm14.0764-6.3386c0-.3497.1311-.612.3497-.8306.2186-.2186.5246-.3497.8306-.3497.306 0 .5683.1311.8306.3497.2186.2186.3497.5246.3497.8306v2.6229c.2623-.1311.5246-.2185.8306-.306.306-.0874.5683-.1311.918-.1311.5684 0 1.0929.0874 1.5738.306.4809.2186.9181.5246 1.3115.8743.3934.3934.6557.7869.8743 1.3115.2186.4809.306 1.0054.306 1.5737v5.8143c0 .3497-.1311.612-.3497.8306-.2186.2185-.5246.3497-.8306.3497-.306 0-.612-.1312-.8306-.3497-.2186-.2186-.3497-.5246-.3497-.8306v-5.8143c0-.4808-.1749-.8743-.5246-1.1803-.3497-.3497-.7432-.4809-1.2241-.4809-.4808 0-.8743.1749-1.224.4809-.306.306-.4809.6995-.5246 1.1803v5.858c0 .3497-.1311.612-.3497.8306-.2186.2186-.5246.3497-.8306.3497-.3498 0-.6121-.1311-.8306-.3497-.2186-.2186-.3498-.5246-.3498-.8306l.0438-12.1093Zm9.705 3.4534c0-.3498.1312-.6121.3497-.8306.2186-.2186.5246-.3498.8306-.3498.3061 0 .5684.1312.8307.3498.2185.2185.3497.5245.3497.8306v5.8142c0 .4808.1748.8743.5246 1.1803.3497.3497.7431.4809 1.224.4809.2186 0 .4372-.0438.6558-.1312.2185-.0874.3934-.2186.5683-.3497.1748-.1749.2623-.3497.3934-.5246.0874-.2186.1311-.4372.1311-.6557v-5.8142c0-.3498.1312-.6121.3498-.8306.2185-.2186.4808-.3498.8306-.3498.306 0 .612.1312.8306.3498.2186.2185.3497.5245.3497.8306v5.8142c0 .5683-.0874 1.0929-.306 1.5737-.2186.4809-.5246.9181-.8743 1.3115-.3935.3934-.8306.6557-1.3115.8743-.4809.2186-1.0055.306-1.5738.306s-1.0929-.0874-1.5737-.306c-.4809-.2186-.9181-.5246-1.3115-.8743-.3935-.3934-.6558-.7869-.8743-1.3115-.2186-.4808-.3061-1.0054-.3061-1.5737v-5.8142h-.0874Zm9.7486-3.4974c0-.3497.1311-.612.3497-.8306.2186-.2185.4809-.3497.8306-.3497.306 0 .612.1312.8306.3497.2186.2186.3497.5246.3497.8306v.6121c0 .306-.1311.612-.3497.8306-.2186.2185-.5246.3497-.8306.3497-.306 0-.5683-.1312-.8306-.3497-.2186-.2186-.3497-.5246-.3497-.8306v-.6121Zm0 3.4973c0-.3497.1311-.612.3497-.8306.2186-.2186.4809-.3497.8306-.3497.306 0 .612.1311.8306.3497.2186.2186.3497.5246.3497.8306v8.6995c0 .3497-.1311.612-.3497.8306-.2186.2185-.5246.3497-.8306.3497-.306 0-.5683-.1312-.8306-.3497-.2186-.2186-.3497-.5246-.3497-.8306v-8.6995Zm3.8907 2.0547c0-.4809.0874-.918.306-1.3115.1749-.3934.4371-.7431.7869-1.0054.3497-.3061.7431-.5246 1.224-.6558.4809-.1748 1.0055-.2623 1.5301-.2623.4371 0 .8743.0875 1.3114.2186.3498.1312.7432.306 1.1367.5246.3934.2186.6994.5683.9617 1.0055.1312.2185.2186.4371.2186.6557 0 .306-.1312.612-.3497.8306-.2186.2186-.4809.3497-.8306.3497-.1749 0-.3498-.0437-.5246-.1311-.1749-.0875-.306-.2186-.4372-.3498v.0438c-.2186-.2623-.4371-.4372-.6557-.5683-.2186-.1312-.5246-.1749-.8743-.1749-.4372 0-.8306.0874-1.0929.2623-.2623.1749-.4372.3934-.4372.612 0 .3497.1312.5683.3934.6995.2623.1311.6558.2185 1.0929.2185.5683 0 1.0929.0875 1.5738.2186.4809.1312.918.3498 1.3115.6558.3934.306.6557.6557.8743 1.0929.2186.4371.306.918.306 1.4863 0 .5683-.1311 1.0929-.3497 1.5301-.2186.4371-.5246.7868-.8743 1.0929-.3935.306-.8306.5245-1.3115.6557-.5246.1311-1.0492.2186-1.5738.2186-.1311 0-.3497 0-.6557-.0437-.306-.0438-.6995-.1312-1.0929-.3061-.3935-.1748-.7869-.3934-1.1803-.7431-.3935-.3498-.7432-.8306-1.0055-1.3989-.0437-.1312-.0874-.2623-.0874-.4372 0-.306.1311-.612.3497-.8306.2186-.2186.5246-.3497.8306-.3497.2623 0 .4809.0874.6557.2186.1749.1311.3498.306.4372.5245.1311.3498.3934.6121.7432.7869.3497.1749.6994.2623 1.0491.2623.4809 0 .8744-.0874 1.2241-.2185.3497-.1749.5246-.4372.5246-.8744 0-.4371-.1749-.6994-.4809-.8743-.3497-.1748-.7432-.2186-1.224-.2186-.5683 0-1.0929-.0437-1.5301-.1748-.4809-.1312-.8743-.306-1.224-.5246-.3498-.2623-.6121-.5683-.7869-1.0055-.1749-.5683-.2623-1.0929-.2623-1.7049Z"></path></svg>
