<svg width="512" height="154" viewBox="0 0 512 154" fill="none" xmlns="http://www.w3.org/2000/svg">
<path d="M25 50.9787C25 36.6311 36.6311 25 50.9787 25V93.2375C50.9787 98.594 55.321 102.936 60.6775 102.936H102.936C102.936 117.284 91.3051 128.915 76.9575 128.915H59.6383C40.5081 128.915 25 113.407 25 94.2766L25 50.9787Z" fill="#9141FB"/>
<path d="M128.915 102.936C128.915 117.284 117.284 128.915 102.936 128.915L102.936 60.6775C102.936 55.321 98.5939 50.9787 93.2374 50.9787L50.9787 50.9788C50.9787 36.6311 62.6098 25 76.9574 25L94.2766 25C113.407 25 128.915 40.5081 128.915 59.6383L128.915 102.936Z" fill="#9141FB"/>
<path d="M90.8128 76.9575C90.8128 84.6096 84.6095 90.8128 76.9574 90.8128H63.1021V76.9575C63.1021 69.3054 69.3054 63.1022 76.9574 63.1021H90.8128V76.9575Z" fill="#9141FB"/>
<path d="M174.106 105.64C165.434 105.64 158.404 98.5827 158.404 89.8768V61.1203C158.404 55.3164 163.091 50.6113 168.872 50.6113H169.993V91.1436C169.993 93.8521 172.18 96.0478 174.878 96.0478H194.538V96.8828C194.538 101.719 190.633 105.64 185.815 105.64H174.106Z" fill="#3E2164"/>
<path d="M219.525 106.446C215.368 106.446 211.773 105.56 208.74 103.786C205.724 101.995 203.396 99.505 201.754 96.3165C200.113 93.1101 199.292 89.3931 199.292 85.1656C199.292 80.9023 200.113 77.1764 201.754 73.9879C203.396 70.7814 205.724 68.2915 208.74 66.5181C211.773 64.7268 215.368 63.8312 219.525 63.8312C223.683 63.8312 227.269 64.7268 230.284 66.5181C233.318 68.2915 235.655 70.7814 237.296 73.9879C238.938 77.1764 239.759 80.9023 239.759 85.1656C239.759 89.3931 238.938 93.1101 237.296 96.3165C235.655 99.505 233.318 101.995 230.284 103.786C227.269 105.56 223.683 106.446 219.525 106.446ZM219.579 97.5794C221.47 97.5794 223.049 97.042 224.316 95.9672C225.583 94.8745 226.537 93.3877 227.18 91.5069C227.84 89.626 228.17 87.4854 228.17 85.085C228.17 82.6847 227.84 80.544 227.18 78.6632C226.537 76.7823 225.583 75.2955 224.316 74.2028C223.049 73.1101 221.47 72.5638 219.579 72.5638C217.67 72.5638 216.064 73.1101 214.762 74.2028C213.477 75.2955 212.504 76.7823 211.844 78.6632C211.202 80.544 210.881 82.6847 210.881 85.085C210.881 87.4854 211.202 89.626 211.844 91.5069C212.504 93.3877 213.477 94.8745 214.762 95.9672C216.064 97.042 217.67 97.5794 219.579 97.5794Z" fill="#3E2164"/>
<path d="M258.895 106.419C256.272 106.419 253.934 105.963 251.882 105.049C249.831 104.118 248.207 102.747 247.012 100.938C245.834 99.111 245.245 96.836 245.245 94.1132C245.245 91.8203 245.664 89.8947 246.503 88.3362C247.342 86.7778 248.484 85.5239 249.929 84.5745C251.374 83.6251 253.015 82.9086 254.853 82.4249C256.709 81.9413 258.654 81.6009 260.688 81.4039C263.079 81.1531 265.006 80.9202 266.469 80.7053C267.932 80.4724 268.993 80.132 269.653 79.6842C270.314 79.2364 270.644 78.5736 270.644 77.6959V77.5346C270.644 75.8329 270.108 74.5163 269.038 73.5848C267.985 72.6533 266.486 72.1876 264.542 72.1876C262.49 72.1876 260.857 72.6444 259.644 73.558C258.431 74.4536 257.628 75.5821 257.235 76.9435L246.69 76.0837C247.226 73.5759 248.278 71.4084 249.848 69.5813C251.419 67.7362 253.444 66.3211 255.924 65.3359C258.422 64.3327 261.312 63.8312 264.595 63.8312C266.879 63.8312 269.065 64.0999 271.152 64.6373C273.258 65.1746 275.122 66.0076 276.746 67.1361C278.387 68.2646 279.681 69.7156 280.627 71.489C281.572 73.2445 282.045 75.3493 282.045 77.8033V105.64H271.233V99.917H270.911C270.251 101.207 269.368 102.344 268.262 103.329C267.156 104.297 265.826 105.058 264.274 105.613C262.722 106.151 260.929 106.419 258.895 106.419ZM262.16 98.5198C263.837 98.5198 265.318 98.1884 266.602 97.5256C267.887 96.845 268.895 95.9314 269.627 94.7849C270.358 93.6385 270.724 92.3398 270.724 90.8889V86.5091C270.367 86.742 269.877 86.9569 269.252 87.154C268.645 87.3331 267.958 87.5033 267.191 87.6645C266.424 87.8078 265.657 87.9421 264.89 88.0675C264.122 88.175 263.427 88.2735 262.802 88.3631C261.464 88.5601 260.295 88.8736 259.296 89.3035C258.297 89.7335 257.521 90.3156 256.968 91.0501C256.414 91.7666 256.138 92.6623 256.138 93.737C256.138 95.2955 256.7 96.4867 257.824 97.3107C258.966 98.1168 260.411 98.5198 262.16 98.5198Z" fill="#3E2164"/>
<path d="M302.292 81.78V105.64H290.89V64.3686H301.756V71.6502H302.238C303.148 69.2499 304.674 67.3511 306.815 65.9539C308.956 64.5387 311.552 63.8312 314.603 63.8312C317.458 63.8312 319.947 64.4581 322.07 65.712C324.193 66.9659 325.843 68.7573 327.021 71.0859C328.199 73.3967 328.787 76.1553 328.787 79.3618V105.64H317.386V81.4039C317.404 78.8781 316.762 76.9077 315.459 75.4926C314.157 74.0595 312.364 73.343 310.08 73.343C308.545 73.343 307.189 73.6744 306.012 74.3372C304.852 75 303.942 75.9673 303.282 77.2391C302.64 78.493 302.309 80.0066 302.292 81.78Z" fill="#3E2164"/>
<path d="M380.535 105.64V64.3686H391.936V105.64H380.535ZM386.262 59.0484C384.567 59.0484 383.113 58.4841 381.9 57.3556C380.704 56.2092 380.107 54.8388 380.107 53.2446C380.107 51.6682 380.704 50.3158 381.9 49.1873C383.113 48.0408 384.567 47.4676 386.262 47.4676C387.957 47.4676 389.402 48.0408 390.598 49.1873C391.811 50.3158 392.418 51.6682 392.418 53.2446C392.418 54.8388 391.811 56.2092 390.598 57.3556C389.402 58.4841 387.957 59.0484 386.262 59.0484Z" fill="#3E2164"/>
<path d="M412.47 81.78V105.64H401.069V64.3686H411.935V71.6502H412.417C413.327 69.2499 414.852 67.3511 416.993 65.9539C419.134 64.5387 421.73 63.8312 424.782 63.8312C427.636 63.8312 430.125 64.4581 432.249 65.712C434.372 66.9659 436.022 68.7573 437.2 71.0859C438.377 73.3967 438.966 76.1553 438.966 79.3618V105.64H427.565V81.4039C427.583 78.8781 426.94 76.9077 425.638 75.4926C424.335 74.0595 422.542 73.343 420.258 73.343C418.724 73.343 417.368 73.6744 416.19 74.3372C415.031 75 414.121 75.9673 413.461 77.2391C412.818 78.493 412.488 80.0066 412.47 81.78Z" fill="#3E2164"/>
<path d="M458.283 93.7639L458.31 80.0335H459.969L473.137 64.3686H486.224L468.533 85.1119H465.83L458.283 93.7639ZM447.952 105.64V50.6113H459.353V105.64H447.952ZM473.645 105.64L461.548 87.6645L469.149 79.5767L487 105.64H473.645Z" fill="#3E2164"/>
<path d="M353.689 105.64C345.017 105.64 337.987 98.5827 337.987 89.8767V61.1203C337.987 55.3164 342.674 50.6113 348.455 50.6113H349.576V91.1436C349.576 93.8521 351.763 96.0478 354.461 96.0478H374.121V96.8827C374.121 101.719 370.216 105.64 365.398 105.64H353.689Z" fill="#3E2164"/>
</svg>
